#!OML:ASF F:\VICON\USERDATA\INSTALL\Justin_Nancy\Justin_Nancy.ASF
:FULLY-SPECIFIED
:DEGREES
64
root 0.707902 17.731 -18.5227 -0.0122712 -1.61437 -0.45185
lowerback 6.82464 -1.47414 -1.97946
upperback 0.73088 -1.99996 3.57886
thorax -2.8744 -0.958615 5.01286
lowerneck -15.7398 -2.4535 -8.95497
upperneck 19.8113 -2.20101 4.76213
head 8.96497 -1.20258 2.84444
rclavicle -6.95746e-016 1.66979e-014
rhumerus -36.4594 -20.2669 -73.4287
rradius 23.4106
rwrist 14.8369
rhand -12.2287 10.2566
rfingers 7.12502
rthumb 13.8366 -19.2631
lclavicle -6.95746e-016 1.66979e-014
lhumerus -27.3972 10.2327 85.2263
lradius 29.756
lwrist -9.69813
lhand -18.1481 24.8576
lfingers 7.12502
lthumb 8.12743 414.681
rfemur -14.125 2.23152 24.0958
rtibia 14.3211
rfoot 1.11122 -2.80185
rtoes -1.72639
lfemur -2.68059 -0.869837 -20.5454
ltibia 51.8605
lfoot 18.885 -1.11419
ltoes -0.207035
65
root 0.682922 17.7549 -18.3699 -0.00880841 -1.54458 -0.667964
lowerback 6.85478 -1.52283 -1.83172
upperback 0.705133 -2.04995 3.68805
thorax -2.91417 -0.983605 5.04977
lowerneck -15.8082 -2.49102 -9.09132
upperneck 19.941 -2.20999 4.74342
head 9.02501 -1.2205 2.86107
rclavicle 1.0138e-014 -1.59028e-014
rhumerus -36.1341 -18.7504 -74.2021
rradius 24.3824
rwrist 14.0937
rhand -11.7213 8.21169
rfingers 7.12502
rthumb 14.3256 -21.2741
lclavicle 1.0138e-014 -1.59028e-014
lhumerus -27.7281 10.3298 85.33
lradius 29.7731
lwrist -9.77922
lhand -19.1916 22.5618
lfingers 7.12502
lthumb 7.12024 412.422
rfemur -13.0397 2.10366 24.4569
rtibia 13.4082
rfoot 1.1145 -2.8288
rtoes -0.557539
lfemur -4.08548 -0.596193 -20.166
ltibia 53.8906
lfoot 19.2713 -1.27131
ltoes -4.09678
66
root 0.655611 17.7763 -18.2235 -0.0312719 -1.71294 -1.09826
lowerback 6.91677 -1.48395 -1.52331
upperback 0.727781 -1.97019 3.8428
thorax -2.93841 -0.946611 5.03185
lowerneck -15.7535 -2.4666 -9.18131
upperneck 19.8884 -2.16923 4.79638
head 8.99545 -1.20233 2.89888
rclavicle 3.27995e-014 -4.77083e-015
rhumerus -35.6487 -17.9378 -74.6679
rradius 24.7971
rwrist 13.7661
rhand -11.7314 8.78851
rfingers 7.12502
rthumb 14.3158 -20.698
lclavicle 3.27995e-014 -4.77083e-015
lhumerus -28.01 10.3192 85.419
lradius 29.7537
lwrist -9.93506
lhand -19.4933 22.2031
lfingers 7.12502
lthumb 6.82893 412.073
rfemur -12.0567 2.19506 25.0742
rtibia 12.6519
rfoot 0.843674 -2.95061
rtoes 1.4716
lfemur -5.44904 0.0166734 -19.4854
ltibia 55.822
lfoot 20.5324 -1.52271
ltoes -2.26841
67
root 0.628616 17.7923 -18.0784 -0.176494 -1.80244 -1.41873
lowerback 6.91094 -1.34001 -1.18088
upperback 0.946706 -1.75864 3.79961
thorax -2.74067 -0.851513 4.76701
lowerneck -15.8317 -2.56673 -9.003
upperneck 19.6605 -2.37413 4.94301
head 8.94535 -1.26445 2.89113
rclavicle -1.02374e-014 2.22639e-014
rhumerus -35.1303 -17.8309 -75.1038
rradius 25.0628
rwrist 13.5313
rhand -12.2835 12.5199
rfingers 7.12502
rthumb 13.7837 -17.0035
lclavicle -1.02374e-014 2.22639e-014
lhumerus -27.9057 9.98337 85.4761
lradius 29.7099
lwrist -10.2211
lhand -18.8925 23.3528
lfingers 7.12502
lthumb 7.40887 413.203
rfemur -11.0528 2.25327 25.561
rtibia 12.1164
rfoot 0.527749 -3.0862
rtoes 2.6488
lfemur -6.62715 0.479434 -18.9499
ltibia 57.6097
lfoot 20.9917 -1.47246
ltoes 1.14346
68
root 0.610065 17.8004 -17.9353 -0.339173 -1.84796 -1.5789
lowerback 7.05083 -1.25315 -0.972506
upperback 1.05669 -1.6292 3.77111
thorax -2.72337 -0.79061 4.60939
lowerneck -15.961 -2.65552 -8.90357
upperneck 19.6527 -2.5129 4.95486
head 8.97551 -1.31893 2.86081
rclavicle -2.73329e-014 1.43125e-014
rhumerus -34.8611 -17.0083 -75.6222
rradius 25.5676
rwrist 12.4462
rhand -12.6648 14.6021
rfingers 7.12502
rthumb 13.4163 -14.9458
lclavicle -2.73329e-014 1.43125e-014
lhumerus -28.1982 9.79631 85.5435
lradius 30.0383
lwrist -10.2376
lhand -19.1711 22.8637
lfingers 7.12502
lthumb 7.13995 412.723
rfemur -10.0803 1.98402 25.8534
rtibia 11.6455
rfoot 0.339568 -2.6905
rtoes 1.84156
lfemur -7.8049 0.842728 -18.6953
ltibia 59.2626
lfoot 19.6582 -1.39361
ltoes -0.0896802
